<?xml version="1.0" standalone="no"?>
<!DOCTYPE svg PUBLIC "-//W3C//DTD SVG 1.1//EN" "http://www.w3.org/Graphics/SVG/1.1/DTD/svg11.dtd" >
<svg>
<metadata>
Created by FontForge 20110222 at Mon Mar  7 11:28:38 2011
 By www-data
Copyright (c) 2008 by PaulW &#38; mattschoch. All rights reserved.
</metadata>
<defs>
<font id="Evolution" horiz-adv-x="507" >
  <font-face 
    font-family="Evolution"
    font-weight="400"
    font-stretch="normal"
    units-per-em="1000"
    panose-1="0 0 0 0 0 0 0 0 0 0"
    ascent="750"
    descent="-250"
    x-height="497"
    cap-height="746"
    bbox="-1.33333 -424.227 1842 923"
    underline-thickness="50"
    underline-position="-50"
    unicode-range="U+0020-007A"
  />
    <missing-glyph />
    <glyph glyph-name="space" unicode=" " horiz-adv-x="500" 
 />
    <glyph glyph-name="space" unicode="&#xa0;" horiz-adv-x="500" 
 />
    <glyph glyph-name="E" unicode="E" horiz-adv-x="520" 
d="M503 225q-99 -2 -198 -1.5t-199 0.5q10 -50 48 -84.5t95 -39.5q30 -2 62 -1t64 1h127q2 -22 1 -46.5t0 -47.5h-138q-35 0 -69 -1.5t-68 1.5q-45 5 -83.5 25.5t-65.5 47.5q-29 29 -48.5 66t-24.5 84q-4 35 0.5 65.5t15 56t25 47t31.5 38.5q20 20 44.5 36t56.5 27
q21 8 49 11.5t60 -0.5q35 -3 66.5 -16t57 -33t45.5 -46t33 -54q4 -9 7.5 -18.5t5.5 -17.5q4 -25 0.5 -50t-0.5 -50zM265 416q-8 2 -17 0q-51 -5 -84 -31t-50 -66q70 -1 143.5 -1t144.5 1q-16 40 -51 66.5t-86 30.5z" />
    <glyph glyph-name="F" unicode="F" horiz-adv-x="501" 
d="M504 508h-93q-11 62 -51 102.5t-105 41.5q-29 0 -53.5 -10t-40.5 -23q-25 -19 -42 -48t-20 -66q-4 -43 -1 -91.5t1 -99.5q32 -2 67 -1t69 0v-92q-32 -2 -67 -1t-69 0v-215h-94v389q0 33 -1 65.5t1 63.5q4 42 22.5 80t47.5 68t66.5 49t78.5 23q38 4 70 -0.5t58 -15
t48 -26.5t40 -35q29 -30 47.5 -68.5t20.5 -89.5h-93q-11 62 -51 102.5t-105 41.5q-29 0 -53.5 -10t-40.5 -23q-25 -19 -42 -48t-20 -66q-4 -43 -1 -91.5t1 -99.5q32 -2 67 -1t69 0v-92q-32 -2 -67 -1t-69 0v-215h-94v389q0 33 -1 65.5t1 63.5q4 42 22.5 80t47.5 68t66.5 49
t78.5 23q38 4 70 -0.5t58 -15t48 -26.5t40 -35q29 -30 47.5 -68.5t20.5 -89.5h-93q-11 62 -51 102.5t-105 41.5q-29 0 -53.5 -10t-40.5 -23q-25 -19 -42 -48t-20 -66q-4 -43 -1 -91.5t1 -99.5q32 -2 67 -1t69 0v-92q-32 -2 -67 -1t-69 0v-215h-94v389q0 33 -1 65.5t1 63.5
q4 42 22.5 80t47.5 68t66.5 49t78.5 23q38 4 70 -0.5t58 -15t48 -26.5t40 -35q29 -30 47.5 -68.5t20.5 -89.5z" />
    <glyph glyph-name="G" unicode="G" horiz-adv-x="502" 
d="M5 -184h94q3 -31 17 -57.5t35.5 -46t49.5 -30t59 -8.5q43 2 77.5 25t52.5 56q17 31 20 66.5t1 74t-4.5 78.5t2.5 82q-21 -11 -40 -21t-39.5 -17.5t-45 -11t-56.5 -0.5q-41 3 -79.5 21t-69 47.5t-50.5 68t-24 82.5q-4 49 7 91t32 75t50 56.5t62 37.5q25 10 58 15t71 2
q41 -4 78.5 -23t66.5 -48t48 -67t23 -80q5 -55 2.5 -116.5t-2.5 -124.5q0 -61 2.5 -123t-2.5 -119q-4 -43 -22.5 -80.5t-47.5 -66t-66 -46.5t-78 -22q-70 -8 -125.5 13t-89.5 58q-29 31 -46 68.5t-21 90.5zM97 253q1 -41 18.5 -71.5t44.5 -50t60 -26.5t65.5 -1t61 26
t45.5 55q14 28 15 57.5t-7 56t-23.5 48t-34.5 35.5q-17 12 -45.5 20.5t-57.5 5.5q-30 -3 -56 -15.5t-45.5 -32.5t-30 -47t-10.5 -60z" />
    <glyph glyph-name="H" unicode="H" horiz-adv-x="512" 
d="M5 737h92v-289q19 9 36.5 20t40.5 18q62 20 119 10t101.5 -40.5t73 -77t33.5 -100.5q3 -33 3 -67.5t-1.5 -69t-2.5 -69.5t1 -71h-93q-2 34 -1 67t2 64.5t1.5 62.5t-2.5 63q-3 35 -18.5 65t-41 50t-58 28t-69.5 1q-24 -5 -45.5 -17t-38 -30.5t-27.5 -42.5t-13 -52
q-3 -32 -2.5 -64t2 -64.5t2 -65t-1.5 -65.5h-93v732q0 4 1 4z" />
    <glyph glyph-name="I" unicode="I" horiz-adv-x="101" 
d="M6 542q-2 49 -2 102.5t2 101.5h92q-1 -51 0 -103t-1 -101h-91zM97 506q2 -123 1 -248.5t0 -251.5h-93v496q0 4 1 4h91z" />
    <glyph glyph-name="J" unicode="J" 
d="M410 537q-2 49 -2 102.5t2 101.5h92q-1 -51 0 -103t-2 -101h-90zM502 502q-2 -37 -1.5 -73t2 -70.5t2 -68t-2.5 -64.5q-4 -44 -24.5 -83.5t-46.5 -66.5q-35 -35 -85 -56.5t-122 -15.5q-47 4 -86.5 26t-65.5 49q-29 31 -46.5 69t-21.5 91q21 2 45.5 1t47.5 0
q4 -30 17 -56.5t33.5 -46t48 -30.5t60.5 -10q30 1 56.5 12t47 30t33.5 45t16 58q3 30 2.5 61.5t-2 63.5t-2 64.5t1.5 65.5q-3 5 1 5h92z" />
    <glyph glyph-name="K" unicode="K" horiz-adv-x="497" 
d="M6 923h112q0 -38 0.5 -84t1 -96t0.5 -101v-98v-228l223 220h155q-73 -72 -129 -129l-47.5 -47.5t-41.5 -42.5t-29 -30.5t-11 -12.5t11.5 -13t30 -31.5t42 -43.5t48.5 -49l132 -134h-150q-42 41 -80 78q-32 32 -64.5 62.5t-50.5 47.5q-11 -8 -20.5 -18.5t-20.5 -20.5v-149
h-114q1 231 0 461t2 459z" />
    <glyph glyph-name="L" unicode="L" horiz-adv-x="266" 
d="M4 735h90v-244q0 -63 -2 -125.5t2 -117.5q5 -70 48 -110.5t114 -45.5v-89q-57 -3 -99.5 14t-72.5 46q-29 26 -53 65.5t-28 87.5q-3 31 -1.5 63.5t1.5 65.5v386q0 4 1 4z" />
    <glyph glyph-name="M" unicode="M" horiz-adv-x="966" 
d="M479 416q21 24 45 44.5t54 35t66 21.5t80 4q39 -3 72.5 -17.5t60.5 -37t47 -51.5t32 -60q14 -35 18 -77t3.5 -88t-3 -94.5t-1.5 -96.5h-96q-4 70 0.5 138t-0.5 131q-3 33 -16 61.5t-35 49.5t-51 33t-63 12q-36 0 -65 -13t-50 -34.5t-33.5 -51t-15.5 -63.5
q-5 -61 -0.5 -128t0.5 -135h-96q-3 55 -0.5 110t1 105t-11.5 91.5t-37 68.5q-19 20 -49 35t-68 15q-72 -1 -115 -46.5t-49 -113.5q-5 -61 -0.5 -128.5t0.5 -136.5h-96q2 41 1 80.5t-2.5 77t-1.5 72.5t3 68q4 44 26 83t48 65q27 28 65.5 49.5t85.5 26.5q45 4 81.5 -2.5
t66.5 -21.5t54.5 -36t44.5 -45z" />
    <glyph glyph-name="N" unicode="N" horiz-adv-x="513" 
d="M510 9h-92v129q0 38 1.5 79t-5.5 74q-6 26 -20 49t-34.5 39.5t-46.5 26t-55 8.5q-45 -1 -80.5 -25t-54.5 -59q-9 -17 -13 -39.5t-5 -47.5t-0.5 -52t0.5 -54v-127q-22 -2 -46 -1t-47 0v212q0 18 -1 35.5t1 34.5q3 26 12.5 50.5t20.5 42.5q24 40 58.5 68.5t82.5 44.5
q20 6 47.5 9t56.5 1q46 -5 83 -24.5t66 -47.5q26 -27 46 -65t25 -83q2 -17 1 -35t-1 -35v-208z" />
    <glyph glyph-name="O" unicode="O" 
d="M222 502q34 4 65 0t57 -14t48 -25t39 -32q34 -34 56.5 -84.5t15.5 -121.5q-5 -46 -25 -83t-47 -64q-27 -28 -64 -47.5t-84 -24.5q-35 -4 -65 0.5t-56 15t-47 25t-38 31.5q-16 16 -30.5 37t-25 46.5t-15 56t-0.5 66.5q5 48 24.5 83.5t45.5 61.5q21 21 45 36.5t55 26.5
q10 3 21 5.5t25 4.5zM151 370q-17 -15 -30 -35t-19 -47q-2 -10 -3.5 -20t-0.5 -20q4 -57 38 -96t85 -50q9 -2 19 -3t21 -1q30 2 56 14t46 31.5t32.5 46.5t14.5 59v12q-2 38 -18 65t-36 45t-49.5 30t-62.5 8q-32 -4 -53.5 -13t-39.5 -26z" />
    <glyph glyph-name="P" unicode="P" 
d="M97 54v-291h-93v388q0 33 -1.5 65t1.5 64q4 45 23.5 81.5t45.5 62.5q18 18 38.5 33.5t46 26t56.5 14.5t70 1q44 -3 82 -24t64 -48q35 -36 56 -84.5t15 -119.5q-4 -44 -23.5 -82.5t-51 -68.5t-72 -48.5t-85.5 -21.5q-51 -3 -92.5 12t-79.5 40zM97 254q-1 -24 7.5 -50
t21.5 -44q18 -25 51 -45t76 -20q38 0 71 19t53 45q30 39 31 84t-19.5 82t-58 60.5t-83.5 20.5q-33 -2 -60.5 -14.5t-47 -32.5t-30.5 -47t-12 -58z" />
    <glyph glyph-name="Q" unicode="Q" horiz-adv-x="512" 
d="M500 -235h-93v289q-11 -3 -19 -8.5t-16 -10.5q-26 -14 -61.5 -24t-76.5 -7q-44 3 -84 21t-71.5 47.5t-51.5 68t-24 82.5q-7 69 14 118t55 84q18 18 39 33.5t46.5 26t56.5 15t69 1.5q45 -4 82.5 -24.5t63.5 -48.5q26 -27 46 -65t25 -81q3 -31 1.5 -63.5t-1.5 -65.5v-388z
M96 249q1 -31 13 -59t33 -48.5t49 -32.5t61 -12q38 0 71 18.5t53 44.5q29 39 30 83.5t-19 82t-57 61.5t-84 21q-32 -2 -60 -14.5t-48.5 -33.5t-32 -49.5t-9.5 -61.5z" />
    <glyph glyph-name="R" unicode="R" 
d="M498 300q-23 -2 -47.5 -1.5t-48.5 0.5q-18 49 -52.5 80t-93.5 35q-29 2 -57.5 -8.5t-48.5 -27.5q-24 -21 -38 -49t-19 -67q-3 -30 -1.5 -62.5t1.5 -64.5v-128q-22 -2 -46 -1.5t-47 0.5v214q0 18 -1 36t1 34q2 26 12 50.5t21 43.5q23 40 58.5 69t83.5 45q19 6 47 9t57 1
q45 -5 82.5 -24t63.5 -45q28 -27 46.5 -61t26.5 -78z" />
    <glyph glyph-name="S" unicode="S" 
d="M499 304h-96q-14 45 -50 77.5t-91 37.5q-10 2 -20 0q-41 -3 -68.5 -20.5t-47.5 -42.5q10 -8 22.5 -11.5t23.5 -8.5q81 -30 164 -61t163 -62q-5 -43 -24 -78.5t-48 -61.5q-18 -17 -38.5 -31t-45.5 -24t-55 -14.5t-66 -0.5q-45 5 -81.5 24t-64.5 44q-56 52 -73 141
q23 2 48 1t49 0q13 -44 50 -77.5t91 -38.5q29 -2 52.5 6t41.5 19q11 6 21 14.5t16 19.5q-94 36 -187 70t-186 70q24 116 107 172q33 23 74.5 37t100.5 8q45 -5 81.5 -23.5t64.5 -44.5q58 -54 72 -141z" />
    <glyph glyph-name="T" unicode="T" 
d="M5 743h92v-238q32 -3 67 -2t69 0v-93h-135q0 -44 -2 -86.5t1 -79.5q5 -60 45.5 -100.5t102.5 -45.5q33 -2 61 8.5t49.5 30t35 46.5t18.5 58q23 -1 47.5 0t45.5 -1q-3 -51 -21 -90t-47 -70q-34 -36 -86 -58.5t-124 -16.5q-48 4 -84.5 24.5t-63.5 47.5t-47 63.5t-25 84.5
q-3 30 -1.5 63t1.5 66v384q-2 4 1 5z" />
    <glyph glyph-name="U" unicode="U" 
d="M5 507h92q3 -66 -1 -129t1 -127q5 -63 46.5 -104.5t104.5 -45.5h11q30 1 56 12.5t46.5 31t33 46t15.5 58.5t1.5 64.5t-1.5 64.5v129h93v-499h-93q-1 13 0 26.5t-1 24.5q-17 -11 -36 -21.5t-41.5 -18t-48.5 -11t-58 -0.5q-46 5 -83 24.5t-65 47.5q-27 27 -47.5 64.5
t-25.5 82.5q-2 17 -1 35t1 35v207q0 3 1 3z" />
    <glyph glyph-name="V" unicode="V" 
d="M6 502h91v-129q0 -38 -1.5 -79.5t5.5 -74.5q6 -26 19 -47.5t32.5 -38t44 -26.5t51.5 -11q33 -2 61 10t46 28q17 15 31.5 36.5t19.5 47.5q7 32 5.5 67.5t-1.5 72.5v144h93v-210q0 -17 1 -34.5t-1 -34.5q-5 -45 -25 -83t-47 -65q-28 -28 -65.5 -47.5t-82.5 -24.5
q-62 -6 -107 10.5t-78 42.5q-24 20 -44 45.5t-33 56.5q-6 17 -11 35t-5 38q-2 65 -0.5 132.5t0.5 135.5q-3 3 1 3z" />
    <glyph glyph-name="W" unicode="W" horiz-adv-x="922" 
d="M6 502h91q4 -68 -0.5 -133t0.5 -125q3 -32 15 -59.5t32.5 -48t48.5 -32t61 -11.5t61 11.5t49 31.5t33.5 48t15.5 60q5 59 0.5 125t-0.5 133h94q3 -66 -1 -130.5t1 -123.5q2 -33 14 -61.5t32.5 -49t48.5 -32.5t62 -12q45 -1 80 20.5t53 50.5t23 68.5t4.5 84t-3 92.5
t1.5 93h93q0 -76 3 -148t-3 -135q-4 -42 -22.5 -80t-48 -67.5t-67.5 -49t-80 -23.5q-43 -4 -78 2.5t-64 21t-52.5 34.5t-42.5 43q-20 -24 -44 -44t-53 -34t-63.5 -20t-75.5 -3q-42 4 -80 22.5t-68 48t-49.5 67.5t-23.5 80q-3 33 -2.5 67t2 69.5t2.5 71t-2 71.5q0 6 2 6z" />
    <glyph glyph-name="X" unicode="X" horiz-adv-x="449" 
d="M10 512q40 -1 72 -10.5t57 -25.5t45.5 -37t38.5 -44q17 23 38 44.5t47.5 38t59 25.5t73.5 8q0 -23 0.5 -47t-1.5 -46q-31 -1 -56.5 -10.5t-45.5 -26.5q-14 -12 -26 -28.5t-19.5 -36t-10 -42t2.5 -48.5q11 -53 53 -87t102 -37q2 -22 1.5 -46t-0.5 -47q-44 -3 -79.5 9
t-62.5 30q-23 15 -41.5 35t-33.5 42q-7 -3 -10 -9.5t-7 -11.5q-26 -35 -69.5 -62.5t-100.5 -33.5q-8 -1 -14.5 -0.5t-13.5 0.5v94q66 6 108 44.5t47 103.5q2 11 0.5 22t-3.5 20q-10 53 -51 87t-101 39q0 23 -0.5 47.5t1.5 46.5z" />
    <glyph glyph-name="Y" unicode="Y" horiz-adv-x="500" 
d="M6 497h91q3 -48 0.5 -99t-2 -98.5t9 -87.5t32.5 -67q34 -37 78.5 -46t86 5.5t71.5 50.5t35 88q3 31 2.5 61.5t-1.5 61.5t-2 63.5t1 67.5h92v-525q0 -44 2 -88t-2 -87q-3 -42 -21.5 -80t-47 -67.5t-66 -48.5t-79.5 -23q-60 -7 -109.5 8t-85.5 47t-58 78t-28 101h94
q3 -31 16 -57t34 -45.5t48 -30t58 -9.5q33 1 60 12t46.5 30.5t31.5 46t15 58.5q5 54 1 112.5t-1 121.5q-18 -11 -38 -20.5t-42 -17t-47 -11t-54 -1.5q-42 4 -80.5 22t-68.5 47t-49.5 67.5t-23.5 83.5q-3 32 -2.5 65t1.5 67t2 68.5t-1 69.5q-2 6 1 6z" />
    <glyph glyph-name="Z" unicode="Z" horiz-adv-x="512" 
d="M133 160q5 -11 15.5 -19t21.5 -15q17 -11 40 -19t53 -6q50 5 82 31t51 60q1 8 3.5 13.5t4.5 11.5q24 -1 49 0t48 -1q-3 -23 -10.5 -42.5t-17.5 -37.5q-26 -48 -75 -84.5t-115 -44.5q-29 -3 -60 0q-64 7 -111.5 41t-76.5 81q-11 19 -18.5 40.5t-12.5 45.5q4 5 10.5 6.5
t11.5 3.5q86 32 175.5 66t175.5 66q1 7 -6 11t-9 11q-23 18 -51.5 32.5t-67.5 11.5q-57 -5 -92 -38t-50 -78q-24 1 -48.5 0t-47.5 1q7 46 26.5 79.5t46.5 59.5q33 33 83 55t121 15q46 -5 83.5 -25t64.5 -47q29 -28 47.5 -64.5t26.5 -79.5q-5 -5 -11 -7t-11 -4
q-87 -32 -174.5 -64t-174.5 -66z" />
    <glyph glyph-name="bracketleft" unicode="[" horiz-adv-x="833" 
 />
    <glyph glyph-name="a" unicode="a" 
d="M507 2h-91q-2 11 -1 25.5t-1 25.5q-14 -8 -27.5 -16.5t-28.5 -15.5q-24 -11 -55.5 -16.5t-68.5 -2.5q-47 4 -84.5 23.5t-66.5 47.5t-48.5 65t-24.5 83q-4 36 0.5 66.5t15 56t24.5 46.5t30 37q23 23 53.5 41.5t67.5 26.5q16 4 41.5 5.5t47.5 -0.5q46 -5 82.5 -25t63.5 -48
q27 -27 47 -64.5t25 -82.5q4 -34 2 -69.5t-2 -70.5t0.5 -69t-1.5 -69zM154 366q-12 -11 -23 -26.5t-18 -34.5t-9.5 -40.5t2.5 -45.5t18.5 -46.5t33.5 -40t46 -27.5t56 -10q33 0 60.5 13.5t47.5 33.5q20 19 34 46.5t13 63.5q0 33 -13.5 61.5t-30.5 45.5q-20 22 -53 37t-72 10
q-58 -7 -92 -40z" />
    <glyph glyph-name="b" unicode="b" horiz-adv-x="508" 
d="M9 742h90v-289q6 -2 12.5 3t14.5 10q29 18 67.5 29t91.5 6q49 -4 91 -27.5t72 -61t45 -87t10 -104.5q-4 -42 -22.5 -79.5t-48.5 -67t-69 -48t-82 -22.5q-68 -6 -118.5 16.5t-83.5 56.5q-28 27 -48 65.5t-25 87.5q-2 32 -1 63.5t1 63.5v380q0 3 3 5zM121 333q-3 -6 -7 -15
t-7.5 -20t-5.5 -22.5t-2 -21.5q0 -44 19.5 -76t45.5 -51q16 -11 41 -20.5t52 -9.5q31 0 60 12.5t50.5 35t33.5 53t9 67.5q-2 21 -11 45t-20 38q-21 28 -57.5 46t-82.5 13q-39 -5 -70 -25t-48 -49z" />
    <glyph glyph-name="c" unicode="c" horiz-adv-x="511" 
d="M499 317q-23 -1 -49 -1t-49 1q-6 9 -10.5 18t-10.5 17q-19 25 -47.5 42t-67.5 20q-10 1 -20 0q-62 -5 -103 -46.5t-46 -104.5q-2 -38 13.5 -68.5t35.5 -50.5q19 -19 46.5 -32t62.5 -14q28 0 52.5 9.5t42.5 23.5q19 14 31.5 32t22.5 40q23 2 49 2t49 -2q-10 -45 -29 -76
t-48 -57q-34 -30 -80 -50t-114 -15q-47 3 -86 23.5t-68 47.5q-17 16 -32 37.5t-25.5 48t-15 57.5t-0.5 67q5 48 24.5 84.5t45.5 62.5q24 25 53.5 42t68.5 27q17 4 42 6t48 0q43 -4 78 -22t61 -41q28 -26 47 -57t28 -71z" />
    <glyph glyph-name="d" unicode="d" horiz-adv-x="501" 
d="M410 742h90q2 -64 1.5 -127.5t-0.5 -127.5t2.5 -128t-2.5 -126q-3 -45 -21.5 -84.5t-48 -69.5t-68.5 -49.5t-84 -23.5q-67 -7 -116 15t-84 56q-38 36 -59 85t-15 122q3 41 22 78.5t48.5 67.5t67.5 49t79 23q61 5 104 -9.5t81 -42.5q3 70 2 142.5t0 144.5q0 5 1 5zM98 265
q-3 -36 9 -66.5t33.5 -52.5t51 -34.5t61.5 -12.5q35 0 67 16t54.5 44t31 65t-4.5 78q-8 24 -23 45t-36.5 35.5t-48.5 21.5t-57 4q-57 -7 -95 -46t-43 -97z" />
    <glyph glyph-name="e" unicode="e" horiz-adv-x="520" 
d="M503 225q-99 -2 -198 -1.5t-199 0.5q10 -50 48 -84.5t95 -39.5q30 -2 62 -1t64 1h127q2 -22 1 -46.5t0 -47.5h-138q-35 0 -69 -1.5t-68 1.5q-45 5 -83.5 25.5t-65.5 47.5q-29 29 -48.5 66t-24.5 84q-4 35 0.5 65.5t15 56t25 47t31.5 38.5q20 20 44.5 36t56.5 27
q21 8 49 11.5t60 -0.5q35 -3 66.5 -16t57 -33t45.5 -46t33 -54q4 -9 7.5 -18.5t5.5 -17.5q4 -25 0.5 -50t-0.5 -50zM265 416q-8 2 -17 0q-51 -5 -84 -31t-50 -66q70 -1 143.5 -1t144.5 1q-16 40 -51 66.5t-86 30.5z" />
    <glyph glyph-name="f" unicode="f" horiz-adv-x="501" 
d="M504 508h-93q-11 62 -51 102.5t-105 41.5q-29 0 -53.5 -10t-40.5 -23q-25 -19 -42 -48t-20 -66q-4 -43 -1 -91.5t1 -99.5q32 -2 67 -1t69 0v-92q-32 -2 -67 -1t-69 0v-215h-94v389q0 33 -1 65.5t1 63.5q4 42 22.5 80t47.5 68t66.5 49t78.5 23q38 4 70 -0.5t58 -15
t48 -26.5t40 -35q29 -30 47.5 -68.5t20.5 -89.5h-93q-11 62 -51 102.5t-105 41.5q-29 0 -53.5 -10t-40.5 -23q-25 -19 -42 -48t-20 -66q-4 -43 -1 -91.5t1 -99.5q32 -2 67 -1t69 0v-92q-32 -2 -67 -1t-69 0v-215h-94v389q0 33 -1 65.5t1 63.5q4 42 22.5 80t47.5 68t66.5 49
t78.5 23q38 4 70 -0.5t58 -15t48 -26.5t40 -35q29 -30 47.5 -68.5t20.5 -89.5h-93q-11 62 -51 102.5t-105 41.5q-29 0 -53.5 -10t-40.5 -23q-25 -19 -42 -48t-20 -66q-4 -43 -1 -91.5t1 -99.5q32 -2 67 -1t69 0v-92q-32 -2 -67 -1t-69 0v-215h-94v389q0 33 -1 65.5t1 63.5
q4 42 22.5 80t47.5 68t66.5 49t78.5 23q38 4 70 -0.5t58 -15t48 -26.5t40 -35q29 -30 47.5 -68.5t20.5 -89.5z" />
    <glyph glyph-name="g" unicode="g" horiz-adv-x="502" 
d="M5 -184h94q3 -31 17 -57.5t35.5 -46t49.5 -30t59 -8.5q43 2 77.5 25t52.5 56q17 31 20 66.5t1 74t-4.5 78.5t2.5 82q-21 -11 -40 -21t-39.5 -17.5t-45 -11t-56.5 -0.5q-41 3 -79.5 21t-69 47.5t-50.5 68t-24 82.5q-4 49 7 91t32 75t50 56.5t62 37.5q25 10 58 15t71 2
q41 -4 78.5 -23t66.5 -48t48 -67t23 -80q5 -55 2.5 -116.5t-2.5 -124.5q0 -61 2.5 -123t-2.5 -119q-4 -43 -22.5 -80.5t-47.5 -66t-66 -46.5t-78 -22q-70 -8 -125.5 13t-89.5 58q-29 31 -46 68.5t-21 90.5zM97 253q1 -41 18.5 -71.5t44.5 -50t60 -26.5t65.5 -1t61 26
t45.5 55q14 28 15 57.5t-7 56t-23.5 48t-34.5 35.5q-17 12 -45.5 20.5t-57.5 5.5q-30 -3 -56 -15.5t-45.5 -32.5t-30 -47t-10.5 -60z" />
    <glyph glyph-name="h" unicode="h" horiz-adv-x="512" 
d="M5 737h92v-289q19 9 36.5 20t40.5 18q62 20 119 10t101.5 -40.5t73 -77t33.5 -100.5q3 -33 3 -67.5t-1.5 -69t-2.5 -69.5t1 -71h-93q-2 34 -1 67t2 64.5t1.5 62.5t-2.5 63q-3 35 -18.5 65t-41 50t-58 28t-69.5 1q-24 -5 -45.5 -17t-38 -30.5t-27.5 -42.5t-13 -52
q-3 -32 -2.5 -64t2 -64.5t2 -65t-1.5 -65.5h-93v732q0 4 1 4z" />
    <glyph glyph-name="i" unicode="i" horiz-adv-x="101" 
d="M6 542q-2 49 -2 102.5t2 101.5h92q-1 -51 0 -103t-1 -101h-91zM97 506q2 -123 1 -248.5t0 -251.5h-93v496q0 4 1 4h91z" />
    <glyph glyph-name="j" unicode="j" 
d="M410 537q-2 49 -2 102.5t2 101.5h92q-1 -51 0 -103t-2 -101h-90zM502 502q-2 -37 -1.5 -73t2 -70.5t2 -68t-2.5 -64.5q-4 -44 -24.5 -83.5t-46.5 -66.5q-35 -35 -85 -56.5t-122 -15.5q-47 4 -86.5 26t-65.5 49q-29 31 -46.5 69t-21.5 91q21 2 45.5 1t47.5 0
q4 -30 17 -56.5t33.5 -46t48 -30.5t60.5 -10q30 1 56.5 12t47 30t33.5 45t16 58q3 30 2.5 61.5t-2 63.5t-2 64.5t1.5 65.5q-3 5 1 5h92z" />
    <glyph glyph-name="k" unicode="k" horiz-adv-x="497" 
d="M6 923h112q0 -38 0.5 -84t1 -96t0.5 -101v-98v-228l223 220h155q-73 -72 -129 -129l-47.5 -47.5t-41.5 -42.5t-29 -30.5t-11 -12.5t11.5 -13t30 -31.5t42 -43.5t48.5 -49l132 -134h-150q-42 41 -80 78q-32 32 -64.5 62.5t-50.5 47.5q-11 -8 -20.5 -18.5t-20.5 -20.5v-149
h-114q1 231 0 461t2 459z" />
    <glyph glyph-name="l" unicode="l" horiz-adv-x="266" 
d="M4 735h90v-244q0 -63 -2 -125.5t2 -117.5q5 -70 48 -110.5t114 -45.5v-89q-57 -3 -99.5 14t-72.5 46q-29 26 -53 65.5t-28 87.5q-3 31 -1.5 63.5t1.5 65.5v386q0 4 1 4z" />
    <glyph glyph-name="m" unicode="m" horiz-adv-x="966" 
d="M479 416q21 24 45 44.5t54 35t66 21.5t80 4q39 -3 72.5 -17.5t60.5 -37t47 -51.5t32 -60q14 -35 18 -77t3.5 -88t-3 -94.5t-1.5 -96.5h-96q-4 70 0.5 138t-0.5 131q-3 33 -16 61.5t-35 49.5t-51 33t-63 12q-36 0 -65 -13t-50 -34.5t-33.5 -51t-15.5 -63.5
q-5 -61 -0.5 -128t0.5 -135h-96q-3 55 -0.5 110t1 105t-11.5 91.5t-37 68.5q-19 20 -49 35t-68 15q-72 -1 -115 -46.5t-49 -113.5q-5 -61 -0.5 -128.5t0.5 -136.5h-96q2 41 1 80.5t-2.5 77t-1.5 72.5t3 68q4 44 26 83t48 65q27 28 65.5 49.5t85.5 26.5q45 4 81.5 -2.5
t66.5 -21.5t54.5 -36t44.5 -45z" />
    <glyph glyph-name="n" unicode="n" horiz-adv-x="513" 
d="M510 9h-92v129q0 38 1.5 79t-5.5 74q-6 26 -20 49t-34.5 39.5t-46.5 26t-55 8.5q-45 -1 -80.5 -25t-54.5 -59q-9 -17 -13 -39.5t-5 -47.5t-0.5 -52t0.5 -54v-127q-22 -2 -46 -1t-47 0v212q0 18 -1 35.5t1 34.5q3 26 12.5 50.5t20.5 42.5q24 40 58.5 68.5t82.5 44.5
q20 6 47.5 9t56.5 1q46 -5 83 -24.5t66 -47.5q26 -27 46 -65t25 -83q2 -17 1 -35t-1 -35v-208z" />
    <glyph glyph-name="o" unicode="o" 
d="M222 502q34 4 65 0t57 -14t48 -25t39 -32q34 -34 56.5 -84.5t15.5 -121.5q-5 -46 -25 -83t-47 -64q-27 -28 -64 -47.5t-84 -24.5q-35 -4 -65 0.5t-56 15t-47 25t-38 31.5q-16 16 -30.5 37t-25 46.5t-15 56t-0.5 66.5q5 48 24.5 83.5t45.5 61.5q21 21 45 36.5t55 26.5
q10 3 21 5.5t25 4.5zM151 370q-17 -15 -30 -35t-19 -47q-2 -10 -3.5 -20t-0.5 -20q4 -57 38 -96t85 -50q9 -2 19 -3t21 -1q30 2 56 14t46 31.5t32.5 46.5t14.5 59v12q-2 38 -18 65t-36 45t-49.5 30t-62.5 8q-32 -4 -53.5 -13t-39.5 -26z" />
    <glyph glyph-name="p" unicode="p" 
d="M97 54v-291h-93v388q0 33 -1.5 65t1.5 64q4 45 23.5 81.5t45.5 62.5q18 18 38.5 33.5t46 26t56.5 14.5t70 1q44 -3 82 -24t64 -48q35 -36 56 -84.5t15 -119.5q-4 -44 -23.5 -82.5t-51 -68.5t-72 -48.5t-85.5 -21.5q-51 -3 -92.5 12t-79.5 40zM97 254q-1 -24 7.5 -50
t21.5 -44q18 -25 51 -45t76 -20q38 0 71 19t53 45q30 39 31 84t-19.5 82t-58 60.5t-83.5 20.5q-33 -2 -60.5 -14.5t-47 -32.5t-30.5 -47t-12 -58z" />
    <glyph glyph-name="q" unicode="q" horiz-adv-x="512" 
d="M500 -235h-93v289q-11 -3 -19 -8.5t-16 -10.5q-26 -14 -61.5 -24t-76.5 -7q-44 3 -84 21t-71.5 47.5t-51.5 68t-24 82.5q-7 69 14 118t55 84q18 18 39 33.5t46.5 26t56.5 15t69 1.5q45 -4 82.5 -24.5t63.5 -48.5q26 -27 46 -65t25 -81q3 -31 1.5 -63.5t-1.5 -65.5v-388z
M96 249q1 -31 13 -59t33 -48.5t49 -32.5t61 -12q38 0 71 18.5t53 44.5q29 39 30 83.5t-19 82t-57 61.5t-84 21q-32 -2 -60 -14.5t-48.5 -33.5t-32 -49.5t-9.5 -61.5z" />
    <glyph glyph-name="r" unicode="r" 
d="M498 300q-23 -2 -47.5 -1.5t-48.5 0.5q-18 49 -52.5 80t-93.5 35q-29 2 -57.5 -8.5t-48.5 -27.5q-24 -21 -38 -49t-19 -67q-3 -30 -1.5 -62.5t1.5 -64.5v-128q-22 -2 -46 -1.5t-47 0.5v214q0 18 -1 36t1 34q2 26 12 50.5t21 43.5q23 40 58.5 69t83.5 45q19 6 47 9t57 1
q45 -5 82.5 -24t63.5 -45q28 -27 46.5 -61t26.5 -78z" />
    <glyph glyph-name="s" unicode="s" 
d="M499 304h-96q-14 45 -50 77.5t-91 37.5q-10 2 -20 0q-41 -3 -68.5 -20.5t-47.5 -42.5q10 -8 22.5 -11.5t23.5 -8.5q81 -30 164 -61t163 -62q-5 -43 -24 -78.5t-48 -61.5q-18 -17 -38.5 -31t-45.5 -24t-55 -14.5t-66 -0.5q-45 5 -81.5 24t-64.5 44q-56 52 -73 141
q23 2 48 1t49 0q13 -44 50 -77.5t91 -38.5q29 -2 52.5 6t41.5 19q11 6 21 14.5t16 19.5q-94 36 -187 70t-186 70q24 116 107 172q33 23 74.5 37t100.5 8q45 -5 81.5 -23.5t64.5 -44.5q58 -54 72 -141z" />
    <glyph glyph-name="t" unicode="t" 
d="M5 743h92v-238q32 -3 67 -2t69 0v-93h-135q0 -44 -2 -86.5t1 -79.5q5 -60 45.5 -100.5t102.5 -45.5q33 -2 61 8.5t49.5 30t35 46.5t18.5 58q23 -1 47.5 0t45.5 -1q-3 -51 -21 -90t-47 -70q-34 -36 -86 -58.5t-124 -16.5q-48 4 -84.5 24.5t-63.5 47.5t-47 63.5t-25 84.5
q-3 30 -1.5 63t1.5 66v384q-2 4 1 5z" />
    <glyph glyph-name="u" unicode="u" 
d="M5 507h92q3 -66 -1 -129t1 -127q5 -63 46.5 -104.5t104.5 -45.5h11q30 1 56 12.5t46.5 31t33 46t15.5 58.5t1.5 64.5t-1.5 64.5v129h93v-499h-93q-1 13 0 26.5t-1 24.5q-17 -11 -36 -21.5t-41.5 -18t-48.5 -11t-58 -0.5q-46 5 -83 24.5t-65 47.5q-27 27 -47.5 64.5
t-25.5 82.5q-2 17 -1 35t1 35v207q0 3 1 3z" />
    <glyph glyph-name="v" unicode="v" 
d="M6 502h91v-129q0 -38 -1.5 -79.5t5.5 -74.5q6 -26 19 -47.5t32.5 -38t44 -26.5t51.5 -11q33 -2 61 10t46 28q17 15 31.5 36.5t19.5 47.5q7 32 5.5 67.5t-1.5 72.5v144h93v-210q0 -17 1 -34.5t-1 -34.5q-5 -45 -25 -83t-47 -65q-28 -28 -65.5 -47.5t-82.5 -24.5
q-62 -6 -107 10.5t-78 42.5q-24 20 -44 45.5t-33 56.5q-6 17 -11 35t-5 38q-2 65 -0.5 132.5t0.5 135.5q-3 3 1 3z" />
    <glyph glyph-name="w" unicode="w" horiz-adv-x="922" 
d="M6 502h91q4 -68 -0.5 -133t0.5 -125q3 -32 15 -59.5t32.5 -48t48.5 -32t61 -11.5t61 11.5t49 31.5t33.5 48t15.5 60q5 59 0.5 125t-0.5 133h94q3 -66 -1 -130.5t1 -123.5q2 -33 14 -61.5t32.5 -49t48.5 -32.5t62 -12q45 -1 80 20.5t53 50.5t23 68.5t4.5 84t-3 92.5
t1.5 93h93q0 -76 3 -148t-3 -135q-4 -42 -22.5 -80t-48 -67.5t-67.5 -49t-80 -23.5q-43 -4 -78 2.5t-64 21t-52.5 34.5t-42.5 43q-20 -24 -44 -44t-53 -34t-63.5 -20t-75.5 -3q-42 4 -80 22.5t-68 48t-49.5 67.5t-23.5 80q-3 33 -2.5 67t2 69.5t2.5 71t-2 71.5q0 6 2 6z" />
    <glyph glyph-name="x" unicode="x" horiz-adv-x="449" 
d="M10 512q40 -1 72 -10.5t57 -25.5t45.5 -37t38.5 -44q17 23 38 44.5t47.5 38t59 25.5t73.5 8q0 -23 0.5 -47t-1.5 -46q-31 -1 -56.5 -10.5t-45.5 -26.5q-14 -12 -26 -28.5t-19.5 -36t-10 -42t2.5 -48.5q11 -53 53 -87t102 -37q2 -22 1.5 -46t-0.5 -47q-44 -3 -79.5 9
t-62.5 30q-23 15 -41.5 35t-33.5 42q-7 -3 -10 -9.5t-7 -11.5q-26 -35 -69.5 -62.5t-100.5 -33.5q-8 -1 -14.5 -0.5t-13.5 0.5v94q66 6 108 44.5t47 103.5q2 11 0.5 22t-3.5 20q-10 53 -51 87t-101 39q0 23 -0.5 47.5t1.5 46.5z" />
    <glyph glyph-name="y" unicode="y" horiz-adv-x="500" 
d="M6 497h91q3 -48 0.5 -99t-2 -98.5t9 -87.5t32.5 -67q34 -37 78.5 -46t86 5.5t71.5 50.5t35 88q3 31 2.5 61.5t-1.5 61.5t-2 63.5t1 67.5h92v-525q0 -44 2 -88t-2 -87q-3 -42 -21.5 -80t-47 -67.5t-66 -48.5t-79.5 -23q-60 -7 -109.5 8t-85.5 47t-58 78t-28 101h94
q3 -31 16 -57t34 -45.5t48 -30t58 -9.5q33 1 60 12t46.5 30.5t31.5 46t15 58.5q5 54 1 112.5t-1 121.5q-18 -11 -38 -20.5t-42 -17t-47 -11t-54 -1.5q-42 4 -80.5 22t-68.5 47t-49.5 67.5t-23.5 83.5q-3 32 -2.5 65t1.5 67t2 68.5t-1 69.5q-2 6 1 6z" />
    <glyph glyph-name="z" unicode="z" horiz-adv-x="512" 
d="M133 160q5 -11 15.5 -19t21.5 -15q17 -11 40 -19t53 -6q50 5 82 31t51 60q1 8 3.5 13.5t4.5 11.5q24 -1 49 0t48 -1q-3 -23 -10.5 -42.5t-17.5 -37.5q-26 -48 -75 -84.5t-115 -44.5q-29 -3 -60 0q-64 7 -111.5 41t-76.5 81q-11 19 -18.5 40.5t-12.5 45.5q4 5 10.5 6.5
t11.5 3.5q86 32 175.5 66t175.5 66q1 7 -6 11t-9 11q-23 18 -51.5 32.5t-67.5 11.5q-57 -5 -92 -38t-50 -78q-24 1 -48.5 0t-47.5 1q7 46 26.5 79.5t46.5 59.5q33 33 83 55t121 15q46 -5 83.5 -25t64.5 -47q29 -28 47.5 -64.5t26.5 -79.5q-5 -5 -11 -7t-11 -4
q-87 -32 -174.5 -64t-174.5 -66z" />
    <glyph glyph-name="parenleft" unicode="(" horiz-adv-x="512" 
d="M134 150q17 -25 46 -40t64 -19q9 -2 17 0q57 5 92.5 37t50.5 78q24 -1 48.5 0t47.5 -1q-3 -23 -10 -42.5t-16 -36.5q-26 -47 -74.5 -84t-113.5 -45q-20 -2 -44 -1t-41 4q-37 8 -68.5 26t-57.5 44q-20 20 -38 47t-26 59q-5 18 -7 40t-1 45t4.5 44.5t9.5 38.5
q23 58 70.5 101t113.5 57q16 3 40 4t44 -1q46 -5 82.5 -25t63.5 -47q28 -28 46.5 -64.5t25.5 -79.5q-5 -4 -11 -6t-11 -4q-86 -32 -173 -64t-174 -65zM221 408q-56 -16 -90 -56t-33 -110q63 22 123.5 45t122.5 46q8 5 18 6.5t15 8.5q-11 15 -26 27.5t-35 21.5t-44 12t-51 -1
z" />
    <glyph glyph-name="parenright" unicode=")" 
d="M134 150q17 -25 46 -40t64 -19q9 -2 17 0q57 5 92.5 37t50.5 78q24 -1 48.5 0t47.5 -1q-3 -23 -10 -42.5t-16 -36.5q-26 -47 -74.5 -84t-113.5 -45q-20 -2 -44 -1t-41 4q-37 8 -68.5 26t-57.5 44q-20 20 -38 47t-26 59q-5 18 -7 40t-1 45t4.5 44.5t9.5 38.5
q23 58 70.5 101t113.5 57q16 3 40 4t44 -1q46 -5 82.5 -25t63.5 -47q28 -28 46.5 -64.5t25.5 -79.5q-5 -4 -11 -6t-11 -4q-86 -32 -173 -64t-174 -65zM221 408q-56 -16 -90 -56t-33 -110q63 22 123.5 45t122.5 46q8 5 18 6.5t15 8.5q-11 15 -26 27.5t-35 21.5t-44 12t-51 -1
z" />
    <glyph glyph-name="asterisk" unicode="*" horiz-adv-x="1849" 
d="M1842 286q-93 -30 -180 -64.5t-179 -66.5q14 -25 38 -38.5t52 -17t57 3t53.5 20.5t41 36t19.5 49h95q-11 -71 -49.5 -116t-90.5 -66t-110 -18.5t-108.5 27.5t-86 72t-41.5 115q-2 17 0.5 35.5t-0.5 35.5q-4 24 -17.5 44t-33.5 34t-44 22.5t-49 8.5q-45 0 -74 -15.5
t-46.5 -43.5t-25.5 -66t-10.5 -82.5t-1 -93t2.5 -97.5h-91v190q-11 -36 -29.5 -68.5t-44.5 -58t-59.5 -42.5t-74.5 -21q-53 -6 -96 5t-76.5 35t-57.5 58.5t-37 74.5q-17 -38 -40 -71.5t-54.5 -58t-74 -37t-99.5 -6.5q-45 4 -82.5 23.5t-65.5 49t-45.5 65t-21.5 73.5
q-6 52 7.5 99.5t42 85.5t70 62.5t92.5 30.5q52 6 94.5 -4.5t76 -34t57.5 -57.5t39 -76q16 41 41 75t59 57t76 34t91 6q41 -4 76.5 -21t63 -43.5t46 -62t26.5 -77.5q4 50 30.5 89.5t66 65.5t87 38.5t94.5 8t89 -26t69 -62.5q32 36 70.5 64t94.5 34q58 7 106 -8t83.5 -45
t58 -72t30.5 -89zM1445 243q69 26 139.5 50t134.5 56q-20 27 -49 41t-60.5 15t-63 -9t-55.5 -31t-37 -52t-9 -70zM97 247q0 -29 11 -56.5t31 -48.5t48.5 -34t64.5 -12q29 0 50.5 8.5t38.5 22.5t30 32t25 39h84q-2 12 -3 26.5t-1 29.5t2 29t6 24h-95q-14 38 -41.5 60
t-60 28.5t-66.5 -0.5t-62 -26.5t-45.5 -50.5t-16.5 -71zM568 247q1 -47 24 -79.5t57.5 -49.5t74 -18t73.5 15t56.5 49.5t21.5 85.5q-1 34 -15 63t-37.5 49t-53.5 30t-63 6q-62 -7 -100.5 -48.5t-37.5 -102.5z" />
    <glyph glyph-name="A" unicode="A" 
d="M507 2h-91q-2 11 -1 25.5t-1 25.5q-14 -8 -27.5 -16.5t-28.5 -15.5q-24 -11 -55.5 -16.5t-68.5 -2.5q-47 4 -84.5 23.5t-66.5 47.5t-48.5 65t-24.5 83q-4 36 0.5 66.5t15 56t24.5 46.5t30 37q23 23 53.5 41.5t67.5 26.5q16 4 41.5 5.5t47.5 -0.5q46 -5 82.5 -25t63.5 -48
q27 -27 47 -64.5t25 -82.5q4 -34 2 -69.5t-2 -70.5t0.5 -69t-1.5 -69zM154 366q-12 -11 -23 -26.5t-18 -34.5t-9.5 -40.5t2.5 -45.5t18.5 -46.5t33.5 -40t46 -27.5t56 -10q33 0 60.5 13.5t47.5 33.5q20 19 34 46.5t13 63.5q0 33 -13.5 61.5t-30.5 45.5q-20 22 -53 37t-72 10
q-58 -7 -92 -40z" />
    <glyph glyph-name="B" unicode="B" horiz-adv-x="508" 
d="M9 742h90v-289q6 -2 12.5 3t14.5 10q29 18 67.5 29t91.5 6q49 -4 91 -27.5t72 -61t45 -87t10 -104.5q-4 -42 -22.5 -79.5t-48.5 -67t-69 -48t-82 -22.5q-68 -6 -118.5 16.5t-83.5 56.5q-28 27 -48 65.5t-25 87.5q-2 32 -1 63.5t1 63.5v380q0 3 3 5zM121 333q-3 -6 -7 -15
t-7.5 -20t-5.5 -22.5t-2 -21.5q0 -44 19.5 -76t45.5 -51q16 -11 41 -20.5t52 -9.5q31 0 60 12.5t50.5 35t33.5 53t9 67.5q-2 21 -11 45t-20 38q-21 28 -57.5 46t-82.5 13q-39 -5 -70 -25t-48 -49z" />
    <glyph glyph-name="C" unicode="C" horiz-adv-x="511" 
d="M499 317q-23 -1 -49 -1t-49 1q-6 9 -10.5 18t-10.5 17q-19 25 -47.5 42t-67.5 20q-10 1 -20 0q-62 -5 -103 -46.5t-46 -104.5q-2 -38 13.5 -68.5t35.5 -50.5q19 -19 46.5 -32t62.5 -14q28 0 52.5 9.5t42.5 23.5q19 14 31.5 32t22.5 40q23 2 49 2t49 -2q-10 -45 -29 -76
t-48 -57q-34 -30 -80 -50t-114 -15q-47 3 -86 23.5t-68 47.5q-17 16 -32 37.5t-25.5 48t-15 57.5t-0.5 67q5 48 24.5 84.5t45.5 62.5q24 25 53.5 42t68.5 27q17 4 42 6t48 0q43 -4 78 -22t61 -41q28 -26 47 -57t28 -71z" />
    <glyph glyph-name="D" unicode="D" horiz-adv-x="501" 
d="M410 742h90q2 -64 1.5 -127.5t-0.5 -127.5t2.5 -128t-2.5 -126q-3 -45 -21.5 -84.5t-48 -69.5t-68.5 -49.5t-84 -23.5q-67 -7 -116 15t-84 56q-38 36 -59 85t-15 122q3 41 22 78.5t48.5 67.5t67.5 49t79 23q61 5 104 -9.5t81 -42.5q3 70 2 142.5t0 144.5q0 5 1 5zM98 265
q-3 -36 9 -66.5t33.5 -52.5t51 -34.5t61.5 -12.5q35 0 67 16t54.5 44t31 65t-4.5 78q-8 24 -23 45t-36.5 35.5t-48.5 21.5t-57 4q-57 -7 -95 -46t-43 -97z" />
  </font>
</defs>
</svg>
